<?xml version="1.0" encoding="UTF-8" standalone="no"?>
<svg
   xmlns:dc="http://purl.org/dc/elements/1.1/"
   xmlns:cc="http://creativecommons.org/ns#"
   xmlns:rdf="http://www.w3.org/1999/02/22-rdf-syntax-ns#"
   xmlns:svg="http://www.w3.org/2000/svg"
   xmlns="http://www.w3.org/2000/svg"
   xmlns:sodipodi="http://sodipodi.sourceforge.net/DTD/sodipodi-0.dtd"
   xmlns:inkscape="http://www.inkscape.org/namespaces/inkscape"
   viewBox="0 0 30 35"
   id="svg4186"
   version="1.1"
   inkscape:version="0.91 r13725"
   sodipodi:docname="spiky-explosion.svg"
   width="30"
   height="35">
  <metadata
     id="metadata4196">
    <rdf:RDF>
      <cc:Work
         rdf:about="">
        <dc:format>image/svg+xml</dc:format>
        <dc:type
           rdf:resource="http://purl.org/dc/dcmitype/StillImage" />
        <dc:title></dc:title>
      </cc:Work>
    </rdf:RDF>
  </metadata>
  <defs
     id="defs4194" />
  <sodipodi:namedview
     pagecolor="#ffffff"
     bordercolor="#666666"
     borderopacity="1"
     objecttolerance="10"
     gridtolerance="10"
     guidetolerance="10"
     inkscape:pageopacity="0"
     inkscape:pageshadow="2"
     inkscape:window-width="1920"
     inkscape:window-height="1004"
     id="namedview4192"
     showgrid="false"
     inkscape:zoom="2.3395291"
     inkscape:cx="11.501063"
     inkscape:cy="-0.41508381"
     inkscape:window-x="0"
     inkscape:window-y="21"
     inkscape:window-maximized="1"
     inkscape:current-layer="svg4186" />
  <path
     d="m 0.21568344,0.27214309 30.64187856,0 0,35.62442891 -30.64187856,0 z"
     id="path4188"
     inkscape:connector-curvature="0"
     style="fill:#1c151c;stroke:#ffffff;stroke-width:0" />
  <path
     d="M 27.419151,1.3872825 C 24.561617,2.8639575 23.020662,5.4950146 22.307462,8.8514374 24.826801,7.167903 26.625454,4.7734158 27.419151,1.3872825 Z M 5.9347044,1.5962262 C 6.8643728,3.9951735 8.4287253,5.9286345 10.51339,7.4883841 10.607706,5.3164075 10.398486,3.3435653 9.8492668,1.5962979 l -3.9145624,0 z M 19.321014,2.2577156 c -1.645442,3.9745585 -2.984589,8.0172384 -4.063637,12.1180154 -0.780408,-2.80007 -1.754729,-5.5544916 -2.947485,-8.2576331 0.01478,2.5359454 0.210662,5.0034201 0.56526,7.4108531 C 10.544512,11.071563 8.0897499,8.7353778 5.4964406,6.5348763 7.2871939,9.5871624 9.2213472,12.446792 11.280095,15.138733 9.6940211,14.566513 7.8741777,14.432852 6.0087343,14.723345 c 1.1757028,1.040904 2.5556675,1.959065 4.0212717,2.504844 -2.8979955,0.19183 -5.8079566,0.544316 -8.7310234,1.074993 2.4842633,0.545846 4.9583558,0.930619 7.4236539,1.17185 -1.3204145,0.61967 -2.6281988,1.311841 -3.9221634,2.08361 2.4302882,-0.01912 4.7876196,-0.299189 7.0817489,-0.805514 -1.001846,1.51237 -1.8938123,3.142325 -2.6925367,4.872474 1.5401737,-1.052033 2.9910567,-2.218175 4.3421717,-3.512136 -0.748332,4.052838 -1.275349,8.154867 -1.621389,12.297248 1.2957,-3.51979 2.45638,-7.096568 3.463788,-10.737982 0.675203,1.953496 1.448132,3.869982 2.307481,5.753903 -0.148421,-2.597938 -0.418936,-5.167213 -0.825475,-7.704478 2.80277,2.997459 5.775275,5.766844 8.885665,8.350656 -2.324775,-3.60906 -4.802039,-7.068946 -7.456032,-10.356134 3.900255,-0.173807 7.780584,-0.665175 11.644872,-1.413425 -2.842752,-0.474392 -5.69496,-0.821519 -8.557584,-1.02803 1.173432,-0.600955 2.331657,-1.256598 3.475818,-1.961991 -2.18838,0.16887 -4.353118,0.473418 -6.491468,0.929788 0.727746,-1.136504 1.402044,-2.341611 2.017755,-3.621585 -1.002744,0.571521 -1.944621,1.208305 -2.831801,1.903679 0.791663,-4.005173 1.392051,-8.0909197 1.777469,-12.2673277 z m 10.476293,2.0612758 c -2.917442,1.8928989 -5.338091,4.8065186 -7.177742,8.9304616 2.772732,-0.06944 5.142989,-0.897916 7.177684,-2.342443 l 0,-6.5880186 z M 1.7334149,8.9469699 C 1.6565123,8.9460138 1.5791281,8.9466735 1.5013247,8.947926 2.9454455,11.426468 4.8786336,12.784234 7.5906821,12.35973 6.1208275,9.9804067 4.1198903,8.9677552 1.7334149,8.946879 Z M 24.121139,21.437578 c -0.630015,-0.0019 -1.282411,0.07389 -1.954617,0.219173 2.090472,2.537126 4.610644,3.776051 7.729772,3.204319 -1.561178,-2.410631 -3.52519,-3.415839 -5.775274,-3.423492 z M 7.0247619,22.998025 c -0.4792577,2.96e-4 -0.9481,0.03867 -1.4047375,0.09184 -1.5222189,0.178817 -2.932104,0.667264 -4.2291779,1.465474 l 0,4.916866 c 2.2856947,-1.371816 4.341574,-3.467119 6.1165857,-6.461103 -0.1620663,-0.009 -0.3228747,-0.01319 -0.4826703,-0.01319 z m 3.4548151,3.468859 C 7.4599746,28.077636 6.2344191,30.929679 6.1364488,34.562048 8.7146784,32.72934 10.294052,30.131746 10.479577,26.466884 Z m 9.435785,1.095453 c 0.0498,2.684355 0.642998,4.97872 1.677702,6.948575 l 4.718548,0 C 24.955831,31.686557 22.86907,29.343278 19.9153,27.562266 Z"
     id="path4190"
     inkscape:connector-curvature="0"
     style="fill:#ffffff" />
</svg>
