<?xml version="1.0" encoding="UTF-8" standalone="no"?>
<svg
   xmlns:dc="http://purl.org/dc/elements/1.1/"
   xmlns:cc="http://creativecommons.org/ns#"
   xmlns:rdf="http://www.w3.org/1999/02/22-rdf-syntax-ns#"
   xmlns:svg="http://www.w3.org/2000/svg"
   xmlns="http://www.w3.org/2000/svg"
   xmlns:sodipodi="http://sodipodi.sourceforge.net/DTD/sodipodi-0.dtd"
   xmlns:inkscape="http://www.inkscape.org/namespaces/inkscape"
   viewBox="0 0 30 35"
   id="svg4192"
   version="1.1"
   inkscape:version="0.91 r13725"
   sodipodi:docname="poison-gas.svg"
   width="30"
   height="35">
  <metadata
     id="metadata4202">
    <rdf:RDF>
      <cc:Work
         rdf:about="">
        <dc:format>image/svg+xml</dc:format>
        <dc:type
           rdf:resource="http://purl.org/dc/dcmitype/StillImage" />
        <dc:title></dc:title>
      </cc:Work>
    </rdf:RDF>
  </metadata>
  <defs
     id="defs4200" />
  <sodipodi:namedview
     pagecolor="#ffffff"
     bordercolor="#666666"
     borderopacity="1"
     objecttolerance="10"
     gridtolerance="10"
     guidetolerance="10"
     inkscape:pageopacity="0"
     inkscape:pageshadow="2"
     inkscape:window-width="1920"
     inkscape:window-height="1004"
     id="namedview4198"
     showgrid="false"
     inkscape:zoom="4.6790581"
     inkscape:cx="25.039602"
     inkscape:cy="24.178601"
     inkscape:window-x="0"
     inkscape:window-y="21"
     inkscape:window-maximized="1"
     inkscape:current-layer="svg4192" />
  <path
     d="m -3.1934008e-6,-0.09687998 30.3280411934008,0 0,35.80508498 -30.3280411934008,0 z"
     id="path4194"
     inkscape:connector-curvature="0"
     style="fill:#1a3d13;stroke:#ffffff;stroke-width:0" />
  <path
     d="m 22.036992,1.0442666 c -1.11657,0 -2.232726,0.5391746 -2.915165,1.6171731 -1.487615,-1.71025246 -4.66744,-0.958625 -4.66744,2.2551608 0,0.4673551 0.06754,0.88233 0.186946,1.2454858 l 7.517208,0 2.605131,12.7344417 -4.475637,0 -0.622792,6.323235 c 2.128296,0.06266 4.297639,-1.553326 4.297639,-4.850191 l -1.19e-4,-0.01147 c 0.8961,0.08378 1.827382,-0.295111 2.398995,-1.135972 0.774549,0.831629 2.36079,0.435257 2.36079,-1.189818 0,-1.325211 -1.054669,-1.832215 -1.864109,-1.523815 -0.198791,-1.190379 -0.893847,-1.943264 -1.720761,-2.259287 0.304347,-0.489733 0.491647,-1.123944 0.491647,-1.903054 0,-1.529548 -0.720646,-2.5007618 -1.635937,-2.9148991 0.0179,-0.1062955 0.0276,-0.2198642 0.0276,-0.3409173 0,-0.1202824 -0.0097,-0.2330823 -0.02736,-0.338749 0.942657,-0.6552612 1.624564,-1.8375283 1.624564,-3.5483405 0,-2.7725864 -1.790538,-4.1588442 -3.581136,-4.158984 z M 5.846437,2.6790623 C 4.7072397,2.6694778 3.5807192,3.4273323 3.2620379,5.1566069 2.5067984,9.2557986 7.8010562,10.615345 8.5564136,6.5160816 8.5849643,6.3611123 8.6038015,6.2104786 8.6156482,6.063413 9.3112977,6.286146 10.139159,5.9511022 10.3402,4.8600952 10.685182,2.9880214 8.5684968,2.2313599 7.8293703,3.5747499 7.2991026,3.0013083 6.5703411,2.6852161 5.8464964,2.6790623 Z m 3.6794084,4.7899092 -2.0706003,10.1206015 4.0555469,0 1.230417,12.492618 5.330628,0 1.230299,-12.492618 4.055428,0 -2.070481,-10.1205309 -11.7612973,0 z M 27.819222,8.258502 c -0.639909,0 -1.279879,0.4956069 -1.279879,1.4866103 0,1.9820777 2.559758,1.9820777 2.559758,0 0,-0.9909341 -0.639969,-1.4866103 -1.279939,-1.4866103 z m -17.802087,3.356587 3.986005,3.302739 -4.6831942,0.494977 0.6971892,-3.797716 z m 10.766041,0 0.697308,3.797716 -4.683255,-0.494977 3.985887,-3.302739 z m 6.606834,0.658758 c -0.440232,0 -0.880403,0.340918 -0.880403,1.022613 0,1.36332 1.760863,1.36332 1.760863,0 0,-0.681695 -0.44023,-1.022683 -0.88046,-1.022683 z M 2.8506545,13.160792 c -0.9311659,0 -1.86250916,0.720997 -1.86250916,2.162991 0,1.955013 1.71146176,2.5844 2.81422936,1.888858 0.076412,4.410808 5.0567271,4.971802 6.3813273,1.683679 l -4.1345645,0 1.1615875,-5.677903 C 6.2335931,13.201212 5.2498274,13.62486 4.5918513,14.490057 4.3103688,13.604019 3.5806002,13.160792 2.8506545,13.160792 Z m 12.5497085,2.870911 1.888394,2.944128 -0.882593,0.789041 -1.00592,-1.56843 -1.006037,1.56843 -0.882593,-0.789111 1.888749,-2.944129 z M 2.3918831,18.976181 c -0.4402897,0 -0.8804604,0.340707 -0.8804604,1.022402 0,1.363671 1.7608031,1.363671 1.7608031,0 0,-0.681556 -0.4402302,-1.022402 -0.8804009,-1.022402 z m 8.3652089,2.27698 c -0.8995926,0.04602 -1.7705172,0.766172 -1.7705172,2.160683 0,0.54211 0.1315004,0.982123 0.3453366,1.320311 -0.483057,0.524 -0.8025087,1.29409 -0.8025087,2.311807 0,1.67179 0.8606767,2.67643 1.8957403,3.015809 -0.138608,0.243713 -0.222486,0.552181 -0.222486,0.925757 0,2.006484 2.41807,2.140123 2.741017,0.401549 l -1.188245,0 -0.998337,-10.135916 z m 8.721918,5.85658 -0.421512,4.279336 -3.095177,0 c 0.67456,1.849276 2.740482,2.274672 4.055309,1.276395 0.312758,2.497264 3.701797,2.370269 3.701797,-0.380778 0,-1.813332 -1.472449,-2.486216 -2.565857,-2.019282 0.0034,-0.07252 0.0056,-0.145947 0.0056,-0.221123 0,-1.554235 -0.743985,-2.532022 -1.680305,-2.934548 z m 9.094267,0.457562 c -0.423053,0.0061 -0.851791,0.418542 -0.707614,1.054014 0.24286,1.070236 1.625154,0.632883 1.382295,-0.437355 -0.09868,-0.434975 -0.38532,-0.620854 -0.674681,-0.616659 z M 3.631779,29.053634 c -0.7780449,0 -1.5560883,0.602322 -1.5560883,1.807178 0,1.204926 0.7783408,1.807458 1.5563844,1.807247 -0.015401,0.09581 -0.02393,0.197767 -0.02393,0.306302 0,1.853333 2.3936641,1.853333 2.3936641,0 0,-0.790648 -0.4356691,-1.242828 -0.935134,-1.358915 0.077004,-0.217907 0.121134,-0.469242 0.121134,-0.754565 0,-1.204925 -0.7780448,-1.807247 -1.5560896,-1.807247 z m 23.793772,1.043662 c -0.330707,0.0048 -0.663545,0.21553 -0.810803,0.571344 -0.793978,-0.611694 -2.15406,0.141122 -1.834727,1.54829 0.358013,1.577661 2.195703,1.196673 2.34912,-0.141264 0.57185,0.194551 1.316189,-0.334132 1.112127,-1.233036 -0.119239,-0.525609 -0.465821,-0.750368 -0.815659,-0.745334 z M 7.7075834,30.227161 c -0.4401113,0 -0.8803416,0.340918 -0.8803416,1.022613 0,1.363389 1.7606845,1.363389 1.7606845,0 0,-0.681836 -0.4401114,-1.022613 -0.8802239,-1.022613 z"
     id="path4196"
     inkscape:connector-curvature="0"
     style="fill:#ffffff" />
</svg>
