<?xml version="1.0" encoding="UTF-8" standalone="no"?>
<svg
   xmlns:dc="http://purl.org/dc/elements/1.1/"
   xmlns:cc="http://creativecommons.org/ns#"
   xmlns:rdf="http://www.w3.org/1999/02/22-rdf-syntax-ns#"
   xmlns:svg="http://www.w3.org/2000/svg"
   xmlns="http://www.w3.org/2000/svg"
   xmlns:sodipodi="http://sodipodi.sourceforge.net/DTD/sodipodi-0.dtd"
   xmlns:inkscape="http://www.inkscape.org/namespaces/inkscape"
   viewBox="0 0 30 35"
   id="svg4218"
   version="1.1"
   inkscape:version="0.91 r13725"
   sodipodi:docname="minerals.svg"
   width="30"
   height="35">
  <metadata
     id="metadata4228">
    <rdf:RDF>
      <cc:Work
         rdf:about="">
        <dc:format>image/svg+xml</dc:format>
        <dc:type
           rdf:resource="http://purl.org/dc/dcmitype/StillImage" />
        <dc:title></dc:title>
      </cc:Work>
    </rdf:RDF>
  </metadata>
  <defs
     id="defs4226" />
  <sodipodi:namedview
     pagecolor="#ffffff"
     bordercolor="#666666"
     borderopacity="1"
     objecttolerance="10"
     gridtolerance="10"
     guidetolerance="10"
     inkscape:pageopacity="0"
     inkscape:pageshadow="2"
     inkscape:window-width="1920"
     inkscape:window-height="1004"
     id="namedview4224"
     showgrid="false"
     inkscape:zoom="2.6074563"
     inkscape:cx="15.921941"
     inkscape:cy="39.362849"
     inkscape:window-x="0"
     inkscape:window-y="21"
     inkscape:window-maximized="1"
     inkscape:current-layer="svg4218" />
  <path
     d="m -0.34864911,0.25913775 30.68799811,0 0,35.67370125 -30.68799811,0 z"
     id="path4220"
     inkscape:connector-curvature="0"
     style="fill:#1d426b;stroke:#ffffff;stroke-width:0" />
  <path
     d="m 16.21274,33.519191 -1.254298,-9.011284 -0.77226,8.785678 -2.605866,-1.69004 2.886486,-11.610076 2.421224,4.626934 1.157854,6.307968 -1.83314,2.590751 z M 7.163627,33.252558 6.7031906,31.338492 5.0677684,30.718497 6.7068418,30.180692 7.237929,28.271373 l 0.4610236,1.913513 1.6358356,0.620541 -1.6394263,0.537395 -0.5316796,1.909736 z m 3.588086,-3.812324 -1.7057236,-0.154072 -3.77768,-7.242426 -0.2442309,-5.697594 4.619824,2.08497 3.0087175,4.67064 -0.965496,4.326075 -3.7155607,-5.706939 2.7802657,7.719346 z m 8.576495,-1.97612 -1.002122,-0.146168 -0.500944,-2.997851 -0.84079,-1.839919 5.404741,-6.308036 1.83408,0.675179 -0.772199,5.069079 -4.122707,5.547648 z m 1.080313,-2.878966 1.605629,-2.234783 0.587612,-2.812239 -1.48275,2.234783 -0.710491,2.812239 z m -7.354993,-2.639199 -2.268429,-3.547341 1.302989,-7.492226 4.536394,-6.5319972 3.715561,5.8568222 -0.385657,7.266135 -3.474569,4.167197 -2.219741,-3.942688 -1.206604,4.224098 z m 2.786156,-3.247033 1.600333,-6.500935 1.456548,-1.57081 -1.650379,0.264574 -0.655439,-2.9742143 -0.38613,2.9742143 -2.669869,0.379061 2.655913,1.111207 -0.350917,6.316763 z M 10.113816,17.34327 8.4725074,14.301233 9.0518757,7.8818646 l 1.8336683,4.2803134 -0.771787,5.18116 z m 13.675124,-1.543459 -0.581137,-2.417232 -2.065297,-0.782929 2.069774,-0.679437 0.670809,-2.4104331 0.582078,2.4162061 2.065239,0.783544 -2.069775,0.678274 -0.67181,2.412081 z M 11.194718,9.0691458 10.467916,6.0461439 7.8845409,5.0668784 10.473803,4.2171547 11.312654,1.2019842 12.04081,4.2240233 14.623657,5.2041832 12.034864,6.0528756 11.194659,9.0691458 Z"
     id="path4222"
     inkscape:connector-curvature="0"
     style="fill:#ffffff" />
</svg>
